HIERARCHY
ROOT Hips
{
	OFFSET 0.00000 0.00000 0.00000
	CHANNELS 6 Xposition Yposition Zposition Zrotation Yrotation Xrotation 
	JOINT LHipJoint
	{
		OFFSET 0 0 0
		CHANNELS 3 Zrotation Yrotation Xrotation
		JOINT LeftHip
		{
			OFFSET 1.75344 -1.53157 0.77399
			CHANNELS 3 Zrotation Yrotation Xrotation
			JOINT LeftKnee
			{
				OFFSET 2.25415 -6.19323 0.00000
				CHANNELS 3 Zrotation Yrotation Xrotation
				JOINT LeftAnkle
				{
					OFFSET 2.30342 -6.32861 0.00000
					CHANNELS 3 Zrotation Yrotation Xrotation
					JOINT LeftToe
					{
						OFFSET 0.10958 -0.30108 1.49206
						CHANNELS 3 Zrotation Yrotation Xrotation
						End Site
						{
							OFFSET 0.00000 -0.00000 0.77783
						}
					}
				}
			}
		}
	}
	JOINT RHipJoint
	{
		OFFSET 0 0 0
		CHANNELS 3 Zrotation Yrotation Xrotation
		JOINT RightHip
		{
			OFFSET -1.81912 -1.53156 0.77399
			CHANNELS 3 Zrotation Yrotation Xrotation
			JOINT RightKnee
			{
				OFFSET -2.22882 -6.12365 0.00000
				CHANNELS 3 Zrotation Yrotation Xrotation
				JOINT RightAnkle
				{
					OFFSET -2.21943 -6.09785 0.00000
					CHANNELS 3 Zrotation Yrotation Xrotation
					JOINT RightToe
					{
						OFFSET -0.18931 -0.52012 1.59379
						CHANNELS 3 Zrotation Yrotation Xrotation
						End Site
						{
							OFFSET -0.00000 -0.00000 0.84686
						}
					}
				}
			}
		}
	}
	JOINT lowerback
	{
		OFFSET 0 0 0
		CHANNELS 3 Zrotation Yrotation Xrotation
		JOINT Chest
		{
			OFFSET -0.00200 1.66634 -0.14248
			CHANNELS 3 Zrotation Yrotation Xrotation
			JOINT Chest2
			{
				OFFSET -0.00875 1.64542 0.09514
				CHANNELS 3 Zrotation Yrotation Xrotation
				JOINT lowerneck
				{
					OFFSET 0 0 0
					CHANNELS 3 Zrotation Yrotation Xrotation
					JOINT Neck
					{
						OFFSET 0.02257 1.59605 0.00839
						CHANNELS 3 Zrotation Yrotation Xrotation
						JOINT Head
						{
							OFFSET -0.10214 1.57530 -0.23335
							CHANNELS 3 Zrotation Yrotation Xrotation
							End Site
							{
								OFFSET -0.03588 1.60717 -0.08062
							}
						}
					}
				}
				JOINT LeftCollar
				{
					OFFSET 0 0 0
					CHANNELS 3 Zrotation Yrotation Xrotation
					JOINT LeftShoulder
					{
						OFFSET 2.54983 1.10186 0.40078
CHANNELS 3 Zrotation Xrotation Yrotation
						JOINT LeftElbow
						{
OFFSET 0 -4.288400 0.000000
CHANNELS 3 Zrotation Xrotation Yrotation
							JOINT LeftWrist
							{
OFFSET 0 -3.065520 -0.000000
CHANNELS 3 Zrotation Xrotation Yrotation
								JOINT lhand
								{
									OFFSET 0 0 0
CHANNELS 3 Zrotation Xrotation Yrotation
									JOINT LFingers
									{
OFFSET 0 -0.753040 0.000000
CHANNELS 3 Zrotation Xrotation Yrotation
										End Site
										{
OFFSET 0 -0.607120 0.000000
										}
									}
								}
								JOINT LThumb
								{
OFFSET 0 0.000000 0.000000
CHANNELS 3 Zrotation Xrotation Yrotation
									End Site
									{
OFFSET 0 -0.616390 0.616390
									}
								}
							}
						}
					}
				}
				JOINT RightCollar
				{
					OFFSET 0 0 0
					CHANNELS 3 Zrotation Yrotation Xrotation
					JOINT RightShoulder
					{
						OFFSET -2.60909 1.35448 0.21802
CHANNELS 3 Zrotation Xrotation Yrotation
						JOINT RightElbow
						{
OFFSET 0 -4.521720 -0.000000
CHANNELS 3 Zrotation Xrotation Yrotation
							JOINT RightWrist
							{
OFFSET 0 -2.891400 0.000000
CHANNELS 3 Zrotation Xrotation Yrotation
								JOINT rhand
								{
									OFFSET 0 0 0
CHANNELS 3 Zrotation Xrotation Yrotation
									JOINT RFingers
									{
OFFSET 0 -0.680540 0.000000
CHANNELS 3 Zrotation Xrotation Yrotation
										End Site
										{
OFFSET 0 -0.548670 0.000000
										}
									}
								}
								JOINT RThumb
								{
OFFSET 0 0.000000 0.000000
CHANNELS 3 Zrotation Xrotation Yrotation
									End Site
									{
OFFSET 0 -0.557050 0.557050
									}
								}
							}
						}
					}
				}
			}
		}
	}
}
MOTION
Frames: 8
Frame Time: 0.008333333333333333
8.613700 15.477500 22.426800 -179.088000 -1.114300 179.362000 0.000000 0.000000 0.000000 -24.150600 -16.574700 0.236000 1.722500 8.262500 23.514200 1.493000 5.813000 -25.819100 1.819500 -8.479500 -24.180300 0.000000 0.000000 0.000000 26.748000 12.991400 5.126600 -0.801500 -5.714100 15.957100 0.207600 -18.521900 -24.414700 -0.027200 -1.064200 2.925500 1.306500 1.481400 9.394200 -0.101300 2.122700 -3.679800 -1.204100 0.936300 -9.147000 -6.990600 -3.513500 -9.937200 6.884200 -4.796900 12.019700 2.923900 -2.254000 5.588500 0.000000 0.000000 0.000000 2.386500 16.154100 -30.272200 15.937300 -25.435500 3.619000 5.922900 10.477000 32.590400 0.000000 0.000000 0.000000 -7.125000 0.000000 0.000000 -14.553700 -1.834100 -15.515000 0.000000 0.000000 0.000000 -6.186600 19.690600 48.451400 -18.801600 -29.171400 -4.933800 -16.001400 32.136500 55.476400 0.000000 0.000000 0.000000 7.125000 0.000000 -0.000000 76.406900 77.749600 -63.934700
8.612747 15.479186 22.425701 -179.095329 -1.094878 179.373726 0.000000 0.000000 0.000000 -24.170388 -16.586646 0.246920 1.717077 8.250114 23.476310 1.480541 5.901973 -25.779597 1.844785 -8.534906 -24.351063 0.000000 0.000000 0.000000 26.736201 13.011628 5.151445 -0.797029 -5.698489 15.911954 0.222991 -18.599953 -24.392567 -0.020970 -0.931840 2.561255 1.291842 1.479348 9.393834 -0.102473 2.117936 -3.679214 -1.196331 0.934834 -9.146780 -6.962970 -3.499429 -9.979341 6.894460 -4.784001 12.057444 2.923167 -2.245352 5.606089 0.000000 0.000000 0.000000 2.380783 16.169197 -30.232697 15.926820 -25.421282 3.614456 5.785483 10.545598 32.604325 0.000000 0.000000 0.000000 -7.125000 0.000000 0.000000 -14.630067 -1.832194 -15.601554 0.000000 0.000000 0.000000 -6.212251 19.698002 48.495153 -18.830183 -29.207092 -4.947725 -15.737047 31.768517 55.603410 0.000000 0.000000 0.000000 7.125000 0.000000 0.000000 76.988813 77.660041 -64.400377
8.611934 15.480126 22.425114 -179.079835 -1.075224 179.377068 0.000000 0.000000 0.000000 -24.161903 -16.590953 0.264873 1.711374 8.237123 23.436556 1.469805 5.987452 -25.751040 1.880083 -8.611412 -24.587407 0.000000 0.000000 0.000000 26.754164 13.045689 5.167114 -0.795819 -5.694197 15.899645 0.235261 -18.646472 -24.350824 -0.013344 -0.727705 1.999893 1.306063 1.478367 9.398125 -0.096798 2.119228 -3.670523 -1.198484 0.935045 -9.139480 -6.968084 -3.482283 -9.989297 6.937092 -4.761973 12.017263 2.939295 -2.231441 5.594847 0.000000 0.000000 0.000000 2.384429 16.179824 -30.220210 15.931943 -25.428257 3.616666 5.618956 10.649130 32.551830 0.000000 0.000000 0.000000 -7.125000 0.000000 0.000000 -14.719662 -1.763077 -15.686152 0.000000 0.000000 0.000000 -6.240837 19.697067 48.539419 -18.851732 -29.234027 -4.958250 -15.494819 31.510457 55.777788 0.000000 0.000000 0.000000 7.125000 0.000000 0.000000 77.782981 77.581195 -65.085388
8.611499 15.480361 22.425297 -179.054033 -1.063601 179.380967 0.000000 0.000000 0.000000 -24.136470 -16.604409 0.280443 1.706325 8.225592 23.401317 1.462640 6.057538 -25.739906 1.903941 -8.662987 -24.746811 0.000000 0.000000 0.000000 26.786057 13.081505 5.173289 -0.795426 -5.692780 15.895679 0.245701 -18.672802 -24.295055 -0.007021 -0.541649 1.488394 1.330844 1.476829 9.405544 -0.087436 2.121587 -3.658257 -1.202849 0.935364 -9.129829 -6.996665 -3.465778 -9.983656 6.995924 -4.737094 11.938216 2.964874 -2.215981 5.569574 0.000000 0.000000 0.000000 2.392649 16.186713 -30.215705 15.950047 -25.452848 3.624477 5.445707 10.775019 32.494382 0.000000 0.000000 0.000000 -7.125000 0.000000 0.000000 -14.812711 -1.688514 -15.773343 0.000000 0.000000 0.000000 -6.270767 19.686920 48.583462 -18.870281 -29.257192 -4.967321 -15.232717 31.274093 55.935487 0.000000 0.000000 0.000000 7.125000 0.000000 0.000000 78.495280 77.493493 -65.681943
8.611866 15.479848 22.426763 -179.035711 -1.073935 179.399289 0.000000 0.000000 0.000000 -24.109060 -16.654246 0.278757 1.703467 8.218923 23.381089 1.462421 6.091617 -25.758741 1.881588 -8.614983 -24.598181 0.000000 0.000000 0.000000 26.809510 13.100707 5.168086 -0.792201 -5.681640 15.863505 0.256035 -18.693470 -24.231807 -0.006362 -0.514898 1.414958 1.339492 1.472138 9.414192 -0.078715 2.117483 -3.648876 -1.197865 0.933385 -9.124772 -7.037853 -3.455738 -9.985708 7.048399 -4.718625 11.874821 2.989866 -2.204475 5.551032 0.000000 0.000000 0.000000 2.398732 16.190451 -30.191007 15.978996 -25.492131 3.636936 5.299276 10.907159 32.526043 0.000000 0.000000 0.000000 -7.125000 0.000000 0.000000 -14.894648 -1.702952 -15.870524 0.000000 0.000000 0.000000 -6.299789 19.664860 48.626116 -18.891608 -29.283722 -4.977728 -14.883056 30.926558 55.975283 0.000000 0.000000 0.000000 7.125000 0.000000 0.000000 78.660106 77.365458 -65.702390
8.612166 15.479933 22.427631 -179.023369 -1.085730 179.411631 0.000000 0.000000 0.000000 -24.083909 -16.651990 0.257338 1.702137 8.215908 23.371758 1.461935 6.121577 -25.773257 1.888603 -8.630167 -24.645030 0.000000 0.000000 0.000000 26.828776 13.135124 5.181553 -0.789442 -5.671896 15.835384 0.250289 -18.695001 -24.287095 -0.011350 -0.677779 1.862777 1.342825 1.469972 9.422110 -0.068731 2.116303 -3.638498 -1.188962 0.933200 -9.118453 -7.108011 -3.458521 -9.981448 7.120209 -4.719292 11.840528 3.024093 -2.203001 5.543054 0.000000 0.000000 0.000000 2.404018 16.202760 -30.276008 16.014324 -25.540118 3.652186 5.314835 10.779835 32.531990 0.000000 0.000000 0.000000 -7.125000 0.000000 0.000000 -14.886287 -1.710413 -15.862923 0.000000 0.000000 0.000000 -6.333463 19.666654 48.682458 -18.924098 -29.324206 -4.993583 -14.813457 30.745664 55.904250 0.000000 0.000000 0.000000 7.125000 0.000000 0.000000 78.337831 77.335095 -65.355070
8.611903 15.480079 22.427404 -179.015616 -1.082101 179.413821 0.000000 0.000000 0.000000 -24.066659 -16.609602 0.241037 1.702236 8.216210 23.372609 1.465236 6.115790 -25.794282 1.893717 -8.641133 -24.678958 0.000000 0.000000 0.000000 26.840340 13.161851 5.207036 -0.786968 -5.663169 15.810184 0.247059 -18.692098 -24.312318 -0.014655 -0.781405 2.147589 1.347596 1.472875 9.424707 -0.063623 2.121502 -3.627581 -1.186965 0.935942 -9.107951 -7.174836 -3.464175 -9.978723 7.202196 -4.726818 11.813485 3.060464 -2.204230 5.538271 0.000000 0.000000 0.000000 2.419671 16.221872 -30.392613 16.045740 -25.582684 3.665737 5.380935 10.599121 32.506482 0.000000 0.000000 0.000000 -7.125000 0.000000 0.000000 -14.848837 -1.693038 -15.815721 0.000000 0.000000 0.000000 -6.358874 19.675315 48.751176 -18.935884 -29.338910 -4.999352 -14.946381 30.755252 55.822158 0.000000 0.000000 0.000000 7.125000 0.000000 0.000000 77.970106 77.379400 -65.045714
8.611183 15.480239 22.426370 -179.014735 -1.066711 179.410302 0.000000 0.000000 0.000000 -24.061420 -16.553738 0.231571 1.704177 8.220714 23.386371 1.473582 6.062149 -25.823914 1.880515 -8.612112 -24.589623 0.000000 0.000000 0.000000 26.840972 13.173975 5.238477 -0.784136 -5.653201 15.781408 0.251037 -18.694068 -24.278373 -0.015071 -0.791039 2.173965 1.347939 1.478899 9.421364 -0.062861 2.129740 -3.617610 -1.187457 0.940295 -9.094859 -7.226520 -3.469496 -9.978326 7.280105 -4.736048 11.790333 3.092932 -2.205944 5.534758 0.000000 0.000000 0.000000 2.442769 16.243627 -30.513916 16.068647 -25.613639 3.675604 5.474713 10.408978 32.473521 0.000000 0.000000 0.000000 -7.125000 0.000000 0.000000 -14.795862 -1.671493 -15.749712 0.000000 0.000000 0.000000 -6.379963 19.684211 48.830913 -18.933082 -29.335434 -4.998015 -15.170284 30.856285 55.777909 0.000000 0.000000 0.000000 7.125000 0.000000 0.000000 77.775330 77.459945 -64.944697
